<svg aria-hidden="true" style="position: absolute; width: 0; height: 0; overflow: hidden;" version="1.1" xmlns="http://www.w3.org/2000/svg" xmlns:xlink="http://www.w3.org/1999/xlink">
<defs>
<symbol id="icon-basket" viewBox="0 0 42 32">
<path d="M39.5 14h-37c-0.154 0-0.3 0.071-0.395 0.192s-0.128 0.279-0.091 0.429l4.006 16.017c0.096 0.337 0.391 1.362 1.48 1.362h27c1.093 0 1.385-1.026 1.485-1.379l4-16c0.037-0.149 0.004-0.308-0.091-0.429s-0.24-0.192-0.394-0.192zM35.020 30.363c-0.182 0.637-0.37 0.637-0.52 0.637h-27c-0.149 0-0.336 0-0.515-0.621l-3.844-15.379h35.719l-3.84 15.363zM18.5 28c0.276 0 0.5-0.224 0.5-0.5v-9c0-0.276-0.224-0.5-0.5-0.5s-0.5 0.224-0.5 0.5v9c0 0.276 0.224 0.5 0.5 0.5zM11.499 28c0.019 0 0.037-0.001 0.057-0.003 0.274-0.031 0.472-0.278 0.441-0.552l-1-9c-0.030-0.275-0.27-0.469-0.553-0.442-0.274 0.031-0.472 0.278-0.441 0.552l1 9c0.028 0.256 0.245 0.445 0.496 0.445zM24.5 28c0.276 0 0.5-0.224 0.5-0.5v-9c0-0.276-0.224-0.5-0.5-0.5s-0.5 0.224-0.5 0.5v9c0 0.276 0.224 0.5 0.5 0.5zM30.444 27.997c0.020 0.002 0.038 0.003 0.057 0.003 0.251 0 0.468-0.189 0.496-0.445l1-9c0.030-0.274-0.167-0.521-0.441-0.552-0.287-0.028-0.522 0.167-0.553 0.442l-1 9c-0.030 0.274 0.167 0.521 0.441 0.552zM34.5 12c0.116 0 0.232-0.040 0.327-0.122 0.209-0.181 0.231-0.496 0.051-0.705l-9.5-11c-0.181-0.21-0.496-0.231-0.705-0.052-0.209 0.181-0.231 0.496-0.051 0.705l9.5 11c0.099 0.115 0.238 0.174 0.378 0.174zM17.816 0.113c-0.213-0.173-0.528-0.144-0.703 0.071l-9 11c-0.175 0.213-0.144 0.528 0.070 0.704 0.093 0.075 0.206 0.112 0.317 0.112 0.145 0 0.288-0.062 0.387-0.184l9-11c0.175-0.213 0.143-0.528-0.071-0.703zM41.5 10h-4c-0.276 0-0.5 0.224-0.5 0.5s0.224 0.5 0.5 0.5h4c0.276 0 0.5-0.224 0.5-0.5s-0.224-0.5-0.5-0.5zM13.5 11h16c0.276 0 0.5-0.224 0.5-0.5s-0.224-0.5-0.5-0.5h-16c-0.276 0-0.5 0.224-0.5 0.5s0.224 0.5 0.5 0.5zM0.5 11h5c0.276 0 0.5-0.224 0.5-0.5s-0.224-0.5-0.5-0.5h-5c-0.276 0-0.5 0.224-0.5 0.5s0.224 0.5 0.5 0.5z"></path>
</symbol>
<symbol id="icon-location-shopping" viewBox="0 0 20 20">
<path d="M16 6v2h2l2 12h-20l2-12h2v-2c0-3.314 2.686-6 6-6s6 2.686 6 6v0zM14 6c0-2.209-1.791-4-4-4s-4 1.791-4 4v0 2h8v-2zM4 10v2h2v-2h-2zM14 10v2h2v-2h-2z"></path>
</symbol>
<symbol id="icon-chevron-down" viewBox="0 0 20 20">
<path d="M4.516 7.548c0.436-0.446 1.043-0.481 1.576 0l3.908 3.747 3.908-3.747c0.533-0.481 1.141-0.446 1.574 0 0.436 0.445 0.408 1.197 0 1.615-0.406 0.418-4.695 4.502-4.695 4.502-0.217 0.223-0.502 0.335-0.787 0.335s-0.57-0.112-0.789-0.335c0 0-4.287-4.084-4.695-4.502s-0.436-1.17 0-1.615z"></path>
</symbol>
<symbol id="icon-search" viewBox="0 0 32 32">
<path d="M31.008 27.231l-7.58-6.447c-0.784-0.705-1.622-1.029-2.299-0.998 1.789-2.096 2.87-4.815 2.87-7.787 0-6.627-5.373-12-12-12s-12 5.373-12 12 5.373 12 12 12c2.972 0 5.691-1.081 7.787-2.87-0.031 0.677 0.293 1.515 0.998 2.299l6.447 7.58c1.104 1.226 2.907 1.33 4.007 0.23s0.997-2.903-0.23-4.007zM12 20c-4.418 0-8-3.582-8-8s3.582-8 8-8 8 3.582 8 8-3.582 8-8 8z"></path>
</symbol>
</defs>
</svg>
